<?xml version="1.0" encoding="UTF-8" standalone="no"?>
<svg
   xmlns:dc="http://purl.org/dc/elements/1.1/"
   xmlns:cc="http://creativecommons.org/ns#"
   xmlns:rdf="http://www.w3.org/1999/02/22-rdf-syntax-ns#"
   xmlns:svg="http://www.w3.org/2000/svg"
   xmlns="http://www.w3.org/2000/svg"
   xmlns:sodipodi="http://sodipodi.sourceforge.net/DTD/sodipodi-0.dtd"
   xmlns:inkscape="http://www.inkscape.org/namespaces/inkscape"
   version="1.0"
   id="svg111794"
   x="0px"
   y="0px"
   width="17.85552"
   height="17.859381"
   viewBox="0 0 17.85552 17.859381"
   enable-background="new 0 0 17.85552 17.85938"
   xml:space="preserve"
   sodipodi:docname="TrimpotW.svg"
   inkscape:version="1.0.2 (e86c870879, 2021-01-15)"><metadata
   id="metadata15"><rdf:RDF><cc:Work
       rdf:about=""><dc:format>image/svg+xml</dc:format><dc:type
         rdf:resource="http://purl.org/dc/dcmitype/StillImage" /><dc:title></dc:title></cc:Work></rdf:RDF></metadata><defs
   id="defs13">
	
	
	
</defs><sodipodi:namedview
   pagecolor="#ffffff"
   bordercolor="#666666"
   borderopacity="1"
   objecttolerance="10"
   gridtolerance="10"
   guidetolerance="10"
   inkscape:pageopacity="0"
   inkscape:pageshadow="2"
   inkscape:window-width="1920"
   inkscape:window-height="1017"
   id="namedview11"
   showgrid="false"
   inkscape:zoom="23.797018"
   inkscape:cx="6.4337148"
   inkscape:cy="9.7976538"
   inkscape:window-x="-8"
   inkscape:window-y="-8"
   inkscape:window-maximized="1"
   inkscape:current-layer="svg111794"
   inkscape:document-rotation="0" />
<path
   opacity="0.99"
   fill="#ededed"
   enable-background="new    "
   d="m 7.7824873,1.5977122 h 2.2195977 v 4.7283389 c 0,0.3160692 -0.2562165,0.5722861 -0.5722857,0.5722861 H 8.3547734 c -0.3160692,0 -0.5722861,-0.2562169 -0.5722861,-0.5722861 z"
   id="path2"
   style="stroke-width:1.06177" /><path
   opacity="0.4"
   d="M 10.002107,0.40636882 V 1.6851175 c 3.538641,0.5210343 6.257624,3.5611934 6.257624,7.2444909 0,4.0494396 -3.282658,7.3321086 -7.3319814,7.3321086 -4.0493231,0 -7.3319811,-3.282658 -7.3319811,-7.3321086 0,-3.6586643 2.6826914,-6.6826208 6.1867294,-7.233597 V 0.41726264 C 3.5770195,0.97847443 0.33026015,4.5707778 0.33026015,8.9296084 c 0,4.7484386 3.84918925,8.5976276 8.59750005,8.5976276 4.7483108,0 8.5974998,-3.8492 8.5974998,-8.5976276 0,-4.3834532 -3.28305,-7.993382 -7.523153,-8.52323958 z"
   id="path4"
   style="stroke-width:1.06177;fill:#000000;fill-opacity:1" /><rect
   x="7.7824874"
   y="0.3321614"
   opacity="0.58"
   fill="#ffffff"
   width="2.2195983"
   height="1.36385"
   id="rect6"
   style="stroke-width:1.06177" />
</svg>
