<?xml version="1.0" encoding="UTF-8" standalone="no"?>
<svg
   xmlns:dc="http://purl.org/dc/elements/1.1/"
   xmlns:cc="http://creativecommons.org/ns#"
   xmlns:rdf="http://www.w3.org/1999/02/22-rdf-syntax-ns#"
   xmlns:svg="http://www.w3.org/2000/svg"
   xmlns="http://www.w3.org/2000/svg"
   xmlns:xlink="http://www.w3.org/1999/xlink"
   xmlns:sodipodi="http://sodipodi.sourceforge.net/DTD/sodipodi-0.dtd"
   xmlns:inkscape="http://www.inkscape.org/namespaces/inkscape"
   version="1.0"
   id="svg15246"
   x="0px"
   y="0px"
   width="23.7px"
   height="23.7px"
   viewBox="0 0 23.7 23.7"
   enable-background="new 0 0 23.7 23.7"
   xml:space="preserve"
   sodipodi:docname="PJ301Mvar3.svg"
   inkscape:version="1.0.2 (e86c870879, 2021-01-15)"><metadata
   id="metadata78"><rdf:RDF><cc:Work
       rdf:about=""><dc:format>image/svg+xml</dc:format><dc:type
         rdf:resource="http://purl.org/dc/dcmitype/StillImage" /><dc:title /></cc:Work></rdf:RDF></metadata><defs
   id="defs76"><linearGradient
   inkscape:collect="always"
   id="linearGradient877"><stop
     style="stop-color:#757aff;stop-opacity:1"
     offset="0"
     id="stop873" /><stop
     style="stop-color:#cf5f9e;stop-opacity:1"
     offset="1"
     id="stop875" /></linearGradient><linearGradient
   id="linearGradient1078"
   gradientUnits="userSpaceOnUse"
   x1="-1250.7072"
   y1="417.8472"
   x2="-1233.2302"
   y2="417.8472"
   gradientTransform="rotate(-90,-818.08665,-412.03944)">
					<stop
   offset="0"
   style="stop-color:#c0c0c0;stop-opacity:1"
   id="stop1074" />
					<stop
   offset="1"
   style="stop-color:#7e7e7e;stop-opacity:1"
   id="stop1076" />
				</linearGradient><linearGradient
   id="SVGID_00000133507252578815705350000014969287794782242715_"
   gradientUnits="userSpaceOnUse"
   x1="1061.9836"
   y1="4127.6396"
   x2="1084.1836"
   y2="4127.6396"
   gradientTransform="matrix(0,1,1,0,-4115.8398,-1061.2317)">
					<stop
   offset="0.00559"
   style="stop-color:#FFFFFF"
   id="stop885" />
					<stop
   offset="1"
   style="stop-color:#7B7B7B"
   id="stop887" />
				</linearGradient>
	

		
	
			
		
				
				
					<linearGradient
   id="SVGID_00000133507252578815705350000014969287794782242715_-8"
   gradientUnits="userSpaceOnUse"
   x1="1061.9836"
   y1="4127.6396"
   x2="1084.1836"
   y2="4127.6396"
   gradientTransform="matrix(0,1,1,0,-4115.8398,-1061.2317)"
   spreadMethod="pad">
					<stop
   offset="0.00559"
   style="stop-color:#FFFFFF"
   id="stop12" />
					<stop
   offset="1"
   style="stop-color:#7B7B7B"
   id="stop14" />
				</linearGradient>
				
				
				
					<linearGradient
   id="SVGID_00000016783443767324647770000012896450620973326471_"
   gradientUnits="userSpaceOnUse"
   x1="58.8937"
   y1="90.555496"
   x2="58.8937"
   y2="87.782799"
   gradientTransform="translate(-81.793327,-76.947793)"
   spreadMethod="pad">
					<stop
   offset="0"
   style="stop-color:#c8c8c8;stop-opacity:1"
   id="stop21" />
					<stop
   offset="1"
   style="stop-color:#3c3c3c;stop-opacity:1"
   id="stop23" />
				</linearGradient>
				
				
					<linearGradient
   id="SVGID_00000142168628243639577640000009478606774827061173_"
   gradientUnits="userSpaceOnUse"
   x1="-1250.7072"
   y1="417.8472"
   x2="-1233.2302"
   y2="417.8472"
   gradientTransform="rotate(-90,-818.08665,-412.03944)">
					<stop
   offset="0"
   style="stop-color:#AFADAD"
   id="stop28" />
					<stop
   offset="1"
   style="stop-color:#616262"
   id="stop30" />
				</linearGradient>
				
				
				
				
					<linearGradient
   id="SVGID_00000129173681066646684810000007828613576644480430_"
   gradientUnits="userSpaceOnUse"
   x1="-1894.8135"
   y1="14.4203"
   x2="-1894.8135"
   y2="29.682699"
   gradientTransform="matrix(-1,0,0,1,-1883.0134,-10.2203)">
					<stop
   offset="0.00559"
   style="stop-color:#707171"
   id="stop39" />
					<stop
   offset="1"
   style="stop-color:#181717"
   id="stop41" />
				</linearGradient>
				
				
				
				
					<linearGradient
   id="SVGID_00000158015276085111732840000007822288051635862172_"
   gradientUnits="userSpaceOnUse"
   x1="-1896.436"
   y1="19.489185"
   x2="-1893.9453"
   y2="22.888924"
   gradientTransform="matrix(-0.31958008,-0.94755927,-0.94755927,0.31958008,-572.87907,-1790.6852)"
   xlink:href="#SVGID_1_"
   spreadMethod="pad">
					<stop
   offset="0"
   style="stop-color:#d6d6d6;stop-opacity:0.52549022"
   id="stop56" />
					<stop
   offset="1"
   style="stop-color:#6c6e6d;stop-opacity:1"
   id="stop58" />
				</linearGradient>
				
				
				
			<linearGradient
   inkscape:collect="always"
   xlink:href="#linearGradient1078"
   id="linearGradient1036"
   gradientUnits="userSpaceOnUse"
   gradientTransform="matrix(-1,0,0,1,-1883.2143,-10.131014)"
   x1="-1894.8135"
   y1="14.4203"
   x2="-1894.8135"
   y2="29.682699" />
					
						<linearGradient
   id="SVGID_1_"
   gradientUnits="userSpaceOnUse"
   x1="-602.2439"
   y1="-1759.6412"
   x2="-578.86902"
   y2="-1759.6412"
   gradientTransform="rotate(90,-1175.1201,-572.7211)">
						<stop
   offset="0"
   style="stop-color:#818080"
   id="stop3" />
						<stop
   offset="1"
   style="stop-color:#575757"
   id="stop5" />
					</linearGradient>
					
				<linearGradient
   inkscape:collect="always"
   xlink:href="#linearGradient877"
   id="linearGradient879"
   x1="1.8285837"
   y1="11.85"
   x2="21.871417"
   y2="11.85"
   gradientUnits="userSpaceOnUse" /><linearGradient
   inkscape:collect="always"
   xlink:href="#SVGID_00000016783443767324647770000012896450620973326471_"
   id="linearGradient1476"
   gradientUnits="userSpaceOnUse"
   x1="1.8285837"
   y1="11.85"
   x2="21.871416"
   y2="11.85"
   gradientTransform="rotate(66.761285,11.85,11.85)" /></defs>
<sodipodi:namedview
   bordercolor="#666666"
   borderopacity="1.0"
   fit-margin-bottom="0"
   fit-margin-left="0"
   fit-margin-right="0"
   fit-margin-top="0"
   id="base"
   inkscape:current-layer="svg15246"
   inkscape:cx="5.3516009"
   inkscape:cy="15.815812"
   inkscape:document-rotation="0"
   inkscape:document-units="mm"
   inkscape:pageopacity="0.0"
   inkscape:pageshadow="2"
   inkscape:window-height="1017"
   inkscape:window-maximized="1"
   inkscape:window-width="1920"
   inkscape:window-x="-8"
   inkscape:window-y="-8"
   inkscape:zoom="22.4"
   pagecolor="#ffffff"
   showgrid="false"
   units="px">
	</sodipodi:namedview>
<path
   id="path1474"
   style="fill:url(#linearGradient1476);fill-opacity:1;stroke-width:0.963598"
   d="M 15.80408,21.058369 A 10.021417,10.021417 0 0 1 2.6416317,15.804079 10.021417,10.021417 0 0 1 7.8959217,2.6416317 10.021417,10.021417 0 0 1 21.058369,7.895921 10.021417,10.021417 0 0 1 15.80408,21.058369 Z" /><path
   id="circle19"
   style="opacity:0.49221184;fill:url(#linearGradient879);fill-opacity:1;stroke-width:0.963598"
   d="M 21.871417,11.85 A 10.021417,10.021417 0 0 1 11.85,21.871417 10.021417,10.021417 0 0 1 1.8285837,11.85 10.021417,10.021417 0 0 1 11.85,1.8285837 10.021417,10.021417 0 0 1 21.871417,11.85 Z" /><path
   id="circle33"
   style="fill:#4e4e4e;fill-opacity:1"
   d="M 20.5,11.8 A 8.6999998,8.6999998 0 0 1 11.8,20.5 8.6999998,8.6999998 0 0 1 3.1000004,11.8 8.6999998,8.6999998 0 0 1 11.8,3.1000004 8.6999998,8.6999998 0 0 1 20.5,11.8 Z" /><path
   id="circle35"
   style="fill:#2c2a2c;fill-opacity:1"
   d="M 20,11.8 A 8.1999998,8.1999998 0 0 1 11.8,20 8.1999998,8.1999998 0 0 1 3.6000004,11.8 8.1999998,8.1999998 0 0 1 11.8,3.6000004 8.1999998,8.1999998 0 0 1 20,11.8 Z" /><path
   opacity="0.28"
   fill="#414141"
   enable-background="new    "
   d="m 11.8,4.2 c 4.2,0 7.6,3.8 7.6,8.4 0,4.6 -3.4,9.3 -7.6,9.3 -4.2,0 -7.6,-4.6 -7.6,-9.3 0,-4.7 3.4,-8.4 7.6,-8.4 z"
   id="path37"
   style="fill:#414141;fill-opacity:0" /><path
   id="circle44"
   style="opacity:0;fill:url(#linearGradient1036);fill-opacity:1"
   d="m 19.199108,11.889286 a 7.5999999,7.5999999 0 0 1 -7.6,7.6 7.5999999,7.5999999 0 0 1 -7.6000002,-7.6 7.5999999,7.5999999 0 0 1 7.6000002,-7.5999999 7.5999999,7.5999999 0 0 1 7.6,7.5999999 z" /><path
   id="circle46"
   style="fill:#393939;fill-opacity:1"
   d="M 18.6,11.8 A 6.8000002,6.8000002 0 0 1 11.8,18.6 6.8000002,6.8000002 0 0 1 5,11.8 6.8000002,6.8000002 0 0 1 11.8,5 a 6.8000002,6.8000002 0 0 1 6.8,6.8 z" /><path
   id="circle61"
   style="opacity:0.744548;mix-blend-mode:normal;fill:url(#SVGID_00000158015276085111732840000007822288051635862172_);fill-opacity:1"
   d="M 13.461817,16.727309 A 5.1999998,5.1999998 0 0 1 6.8726926,13.461817 5.1999998,5.1999998 0 0 1 10.138184,6.8726922 5.1999998,5.1999998 0 0 1 16.727309,10.138184 5.1999998,5.1999998 0 0 1 13.461817,16.727309 Z" /><path
   id="circle63"
   d="M 16.4,11.8 A 4.5999999,4.5999999 0 0 1 11.8,16.4 4.5999999,4.5999999 0 0 1 7.2000003,11.8 4.5999999,4.5999999 0 0 1 11.8,7.2000003 4.5999999,4.5999999 0 0 1 16.4,11.8 Z" /><path
   fill="#131313"
   d="M 11.8,11.8"
   id="path65" />
</svg>
