<?xml version="1.0" encoding="UTF-8" standalone="no"?>
<svg
   xmlns:dc="http://purl.org/dc/elements/1.1/"
   xmlns:cc="http://creativecommons.org/ns#"
   xmlns:rdf="http://www.w3.org/1999/02/22-rdf-syntax-ns#"
   xmlns:svg="http://www.w3.org/2000/svg"
   xmlns="http://www.w3.org/2000/svg"
   xmlns:sodipodi="http://sodipodi.sourceforge.net/DTD/sodipodi-0.dtd"
   xmlns:inkscape="http://www.inkscape.org/namespaces/inkscape"
   version="1.0"
   id="svg15246"
   x="0px"
   y="0px"
   width="23.7px"
   height="23.7px"
   viewBox="0 0 23.7 23.7"
   enable-background="new 0 0 23.7 23.7"
   xml:space="preserve"
   sodipodi:docname="PJ301Mvar.svg"
   inkscape:version="1.0.2 (e86c870879, 2021-01-15)"><metadata
   id="metadata78"><rdf:RDF><cc:Work
       rdf:about=""><dc:format>image/svg+xml</dc:format><dc:type
         rdf:resource="http://purl.org/dc/dcmitype/StillImage" /></cc:Work></rdf:RDF></metadata><defs
   id="defs76">
	

		
	
			
		
				
				
					<linearGradient
   id="SVGID_00000133507252578815705350000014969287794782242715_"
   gradientUnits="userSpaceOnUse"
   x1="1061.9836"
   y1="4127.6396"
   x2="1084.1836"
   y2="4127.6396"
   gradientTransform="matrix(0,1,1,0,-4115.8398,-1061.2317)">
					<stop
   offset="0.00559"
   style="stop-color:#FFFFFF"
   id="stop12" />
					<stop
   offset="1"
   style="stop-color:#7B7B7B"
   id="stop14" />
				</linearGradient>
				
				
				
					<linearGradient
   id="SVGID_00000016783443767324647770000012896450620973326471_"
   gradientUnits="userSpaceOnUse"
   x1="58.8937"
   y1="90.555496"
   x2="58.8937"
   y2="87.782799"
   gradientTransform="translate(-47.0062,-77.3266)">
					<stop
   offset="0"
   style="stop-color:#FFFAFC"
   id="stop21" />
					<stop
   offset="1"
   style="stop-color:#808080"
   id="stop23" />
				</linearGradient>
				
				
					<linearGradient
   id="SVGID_00000142168628243639577640000009478606774827061173_"
   gradientUnits="userSpaceOnUse"
   x1="-1250.7072"
   y1="417.8472"
   x2="-1233.2302"
   y2="417.8472"
   gradientTransform="rotate(-90,-818.08665,-412.03944)">
					<stop
   offset="0"
   style="stop-color:#AFADAD"
   id="stop28" />
					<stop
   offset="1"
   style="stop-color:#616262"
   id="stop30" />
				</linearGradient>
				
				
				
				
					<linearGradient
   id="SVGID_00000129173681066646684810000007828613576644480430_"
   gradientUnits="userSpaceOnUse"
   x1="-1894.8135"
   y1="14.4203"
   x2="-1894.8135"
   y2="29.682699"
   gradientTransform="matrix(-1,0,0,1,-1883.0134,-10.2203)">
					<stop
   offset="0.00559"
   style="stop-color:#707171"
   id="stop39" />
					<stop
   offset="1"
   style="stop-color:#181717"
   id="stop41" />
				</linearGradient>
				
				
				
				
					<linearGradient
   id="SVGID_00000158015276085111732840000007822288051635862172_"
   gradientUnits="userSpaceOnUse"
   x1="-1894.8135"
   y1="27.2339"
   x2="-1894.8135"
   y2="16.892099"
   gradientTransform="matrix(-1,0,0,1,-1883.0134,-10.2203)">
					<stop
   offset="0"
   style="stop-color:#595A5A"
   id="stop56" />
					<stop
   offset="1"
   style="stop-color:#181717"
   id="stop58" />
				</linearGradient>
				
				
				
			</defs>
<sodipodi:namedview
   bordercolor="#666666"
   borderopacity="1.0"
   fit-margin-bottom="0"
   fit-margin-left="0"
   fit-margin-right="0"
   fit-margin-top="0"
   id="base"
   inkscape:current-layer="svg15246"
   inkscape:cx="11.979262"
   inkscape:cy="35.06427"
   inkscape:document-rotation="0"
   inkscape:document-units="mm"
   inkscape:pageopacity="0.0"
   inkscape:pageshadow="2"
   inkscape:window-height="1017"
   inkscape:window-maximized="1"
   inkscape:window-width="1920"
   inkscape:window-x="-8"
   inkscape:window-y="-8"
   inkscape:zoom="7.919596"
   pagecolor="#ffffff"
   showgrid="false"
   units="px">
	</sodipodi:namedview>
<g
   id="g1145"><g
     id="g10"
     style="fill:#6b6b6b;fill-opacity:1">
					
						<linearGradient
   id="SVGID_1_"
   gradientUnits="userSpaceOnUse"
   x1="-602.2439"
   y1="-1759.6412"
   x2="-578.86902"
   y2="-1759.6412"
   gradientTransform="rotate(90,-1175.1201,-572.7211)">
						<stop
   offset="0"
   style="stop-color:#818080"
   id="stop3" />
						<stop
   offset="1"
   style="stop-color:#575757"
   id="stop5" />
					</linearGradient>
					<path
   fill="url(#SVGID_1_)"
   d="M 11.8,23.5 C 5.4,23.5 0.1,18.3 0.1,11.8 0.1,5.4 5.3,0.1 11.8,0.1 c 6.5,0 11.7,5.2 11.7,11.7 0,6.5 -5.2,11.7 -11.7,11.7 z"
   id="path8"
   style="fill:#6b6b6b;fill-opacity:1" />
				</g><circle
     fill="url(#SVGID_00000133507252578815705350000014969287794782242715_)"
     cx="11.8"
     cy="11.9"
     r="11.1"
     id="circle17"
     style="fill:url(#SVGID_00000133507252578815705350000014969287794782242715_)" /><circle
     fill="#dfdfdf"
     cx="11.8"
     cy="11.9"
     r="10.4"
     id="circle19"
     style="fill:#9a9a9a;fill-opacity:0.87" /><path
     fill="url(#SVGID_00000016783443767324647770000012896450620973326471_)"
     d="m 1.5,10.5 -0.4,0.4 c -0.4,0.6 -0.4,1.4 0,2 l 0.4,0.4 h 20.7 l 0.4,-0.4 c 0.5,-0.6 0.5,-1.4 0,-2 l -0.4,-0.4 z"
     id="path26"
     style="fill:url(#SVGID_00000016783443767324647770000012896450620973326471_)" /><circle
     fill="url(#SVGID_00000142168628243639577640000009478606774827061173_)"
     cx="11.8"
     cy="11.8"
     r="8.6999998"
     id="circle33"
     style="fill:url(#SVGID_00000142168628243639577640000009478606774827061173_)" /><circle
     fill="#1f1f1f"
     cx="11.8"
     cy="11.8"
     r="8.1999998"
     id="circle35" /><path
     opacity="0.28"
     fill="#414141"
     enable-background="new    "
     d="m 11.8,4.2 c 4.2,0 7.6,3.8 7.6,8.4 0,4.6 -3.4,9.3 -7.6,9.3 -4.2,0 -7.6,-4.6 -7.6,-9.3 0,-4.7 3.4,-8.4 7.6,-8.4 z"
     id="path37"
     style="fill:#414141;fill-opacity:0" /><circle
     fill="url(#SVGID_00000129173681066646684810000007828613576644480430_)"
     cx="11.8"
     cy="11.8"
     r="7.5999999"
     id="circle44"
     style="fill:url(#SVGID_00000129173681066646684810000007828613576644480430_)" /><circle
     fill="#333333"
     cx="11.8"
     cy="11.8"
     r="6.8000002"
     id="circle46"
     style="fill:#5a5a5a;fill-opacity:1" /><g
     opacity="0.43"
     id="g54">
					<path
   fill="#414141"
   d="M 11.8,4.7 C 16,4.7 19.4,8 19.4,12 V 11.9 C 19.4,7.7 16,4.3 11.8,4.3 7.6,4.3 4.2,7.7 4.2,11.9 V 12 C 4.3,7.9 7.7,4.7 11.8,4.7 Z"
   id="path48" />
					<path
   opacity="0.28"
   fill="#414141"
   enable-background="new    "
   d="m 4.2,12 v 0.1 c 0,4.1 3.4,7.4 7.6,7.4 -4.1,0 -7.5,-3.4 -7.6,-7.5 z"
   id="path50" />
					<path
   opacity="0.28"
   fill="#414141"
   enable-background="new    "
   d="m 11.8,19.5 c 4.2,0 7.6,-3.3 7.6,-7.4 V 12 c 0,4.1 -3.4,7.5 -7.6,7.5 z"
   id="path52" />
				</g><circle
     fill="url(#SVGID_00000158015276085111732840000007822288051635862172_)"
     cx="11.8"
     cy="11.8"
     r="5.1999998"
     id="circle61"
     style="fill:url(#SVGID_00000158015276085111732840000007822288051635862172_)" /><circle
     cx="11.8"
     cy="11.8"
     r="4.5999999"
     id="circle63" /><path
     fill="#131313"
     d="M 11.8,11.8"
     id="path65" /></g>
</svg>
