<?xml version="1.0" encoding="UTF-8" standalone="no"?>
<svg
   xmlns:dc="http://purl.org/dc/elements/1.1/"
   xmlns:cc="http://creativecommons.org/ns#"
   xmlns:rdf="http://www.w3.org/1999/02/22-rdf-syntax-ns#"
   xmlns:svg="http://www.w3.org/2000/svg"
   xmlns="http://www.w3.org/2000/svg"
   xmlns:sodipodi="http://sodipodi.sourceforge.net/DTD/sodipodi-0.dtd"
   xmlns:inkscape="http://www.inkscape.org/namespaces/inkscape"
   version="1.0"
   id="svg258108"
   x="0px"
   y="0px"
   width="34.771999"
   height="16.507"
   viewBox="0 0 34.771999 16.507"
   enable-background="new 0 0 28.34766 13.457"
   xml:space="preserve"
   sodipodi:docname="BS0.svg"
   inkscape:version="1.0.2 (e86c870879, 2021-01-15)"><metadata
   id="metadata30"><rdf:RDF><cc:Work
       rdf:about=""><dc:format>image/svg+xml</dc:format><dc:type
         rdf:resource="http://purl.org/dc/dcmitype/StillImage" /><dc:title /></cc:Work></rdf:RDF></metadata><defs
   id="defs28" />
<sodipodi:namedview
   bordercolor="#666666"
   borderopacity="1.0"
   fit-margin-bottom="0"
   fit-margin-left="0"
   fit-margin-right="0"
   fit-margin-top="0"
   id="base"
   inkscape:current-layer="svg258108"
   inkscape:cx="26.187461"
   inkscape:cy="7.7974049"
   inkscape:document-units="mm"
   inkscape:pageopacity="0.0"
   inkscape:pageshadow="2"
   inkscape:window-height="1017"
   inkscape:window-maximized="1"
   inkscape:window-width="1920"
   inkscape:window-x="-8"
   inkscape:window-y="-8"
   inkscape:zoom="22.4"
   pagecolor="#ffffff"
   showgrid="false"
   inkscape:document-rotation="0"
   inkscape:pagecheckerboard="true">
	</sodipodi:namedview>

<linearGradient
   id="path243334_1_"
   gradientUnits="userSpaceOnUse"
   x1="-277.82422"
   y1="-297.28513"
   x2="-277.82422"
   y2="-271.47653"
   gradientTransform="rotate(90,-277.38083,7.17383)">
	<stop
   offset="0"
   style="stop-color:#3B3B3B"
   id="stop4" />
	<stop
   offset="1"
   style="stop-color:#242424"
   id="stop6" />
</linearGradient>
<g
   id="g857"
   transform="matrix(1.2266142,0,0,1.2266142,1.723264e-4,2.2630505e-4)"
   style="stroke:#ffffff;stroke-opacity:1;stroke-width:0.30812684;stroke-miterlimit:4;stroke-dasharray:none;paint-order:stroke fill markers;"><path
     id="path243332"
     inkscape:connector-curvature="0"
     d="m 26.9297,-1e-5 c 0.78124,0 1.41797,0.6406 1.41797,1.41793 v 10.62499 c 0,0.77739 -0.63671,1.4141 -1.41797,1.4141 H 1.41797 C 0.64062,13.45701 0,12.82032 0,12.04291 V 1.41792 C 0,0.64059 0.64063,-1e-5 1.41797,-1e-5 c 0,0 25.51173,0 25.51173,0 z"
     style="fill:#3d3d3d;fill-opacity:1;stroke:#ffffff;stroke-opacity:1;stroke-width:0.30812684;stroke-miterlimit:4;stroke-dasharray:none;paint-order:stroke fill markers" /><path
     id="path243334"
     inkscape:connector-curvature="0"
     opacity="0.54"
     fill="url(#path243334_1_)"
     enable-background="new    "
     d="M 27.07812,11.32419 V 2.1367 c 0,-0.48326 -0.39176,-0.87501 -0.87501,-0.87501 H 2.14453 c -0.48326,0 -0.87501,0.39176 -0.87501,0.87501 v 9.18749 c 0,0.48326 0.39176,0.87501 0.87501,0.87501 H 26.2031 c 0.48327,0 0.87502,-0.39175 0.87502,-0.87501 z"
     style="fill:#3d3d3d;fill-opacity:1;stroke:#ffffff;stroke-opacity:1;stroke-width:0.30812684;stroke-miterlimit:4;stroke-dasharray:none;paint-order:stroke fill markers" /></g>


<g
   aria-label="CONST VOLT A/B TOGGLE"
   id="text837"
   style="font-size:4.40098px;line-height:1.25;font-family:Oswald;-inkscape-font-specification:Oswald;letter-spacing:0px;fill:#ffffff;stroke-width:0.825186"
   transform="matrix(1.2266142,0,0,1.2266142,1.7858213e-4,2.2605973e-4)"><path
     d="m 5.3234804,5.7932919 q -0.5281176,0 -0.7437656,-0.3124696 -0.215648,-0.3168705 -0.215648,-0.871394 V 3.350748 q 0,-0.5853303 0.211247,-0.8889979 0.2112471,-0.3036677 0.7481666,-0.3036677 0.4797068,0 0.6865529,0.2596579 0.211247,0.2596578 0.211247,0.7657705 V 3.4651735 H 5.7503755 V 3.2143176 q 0,-0.2464548 -0.022005,-0.3784842 Q 5.7063655,2.703804 5.613945,2.6245863 5.525925,2.5453683 5.3278813,2.5453683 q -0.2024451,0 -0.3036676,0.08802 -0.096822,0.083619 -0.1276284,0.2376529 -0.030807,0.1496333 -0.030807,0.4048902 v 1.4127145 q 0,0.2728608 0.04401,0.4268951 0.04401,0.1540343 0.1408314,0.220049 0.1012225,0.066015 0.2772617,0.066015 0.1892421,0 0.2816627,-0.083619 0.092421,-0.083619 0.1144255,-0.228851 0.026406,-0.1452323 0.026406,-0.3960882 V 4.4289881 h 0.4709048 v 0.2640588 q 0,0.5325186 -0.202445,0.8185823 -0.1980441,0.2816627 -0.695355,0.2816627 z"
     style="text-align:center;text-anchor:middle;stroke-width:0.825186"
     id="path945" /><path
     d="m 7.6075862,5.7932919 q -0.5237166,0 -0.7525675,-0.2948656 -0.22445,-0.2992667 -0.22445,-0.8625921 V 3.2847333 q 0,-0.5545235 0.2288509,-0.8405872 0.228851,-0.2860637 0.7481666,-0.2860637 0.5193157,0 0.7437657,0.2904647 0.2288509,0.2860637 0.2288509,0.8361862 v 1.3555019 q 0,0.5545234 -0.2288509,0.8537901 -0.228851,0.2992666 -0.7437657,0.2992666 z m 0,-0.3916872 q 0.2772618,0 0.3740833,-0.1628363 0.096822,-0.1628362 0.096822,-0.4929097 V 3.1835108 q 0,-0.3256725 -0.096822,-0.4797068 -0.096821,-0.1584353 -0.3740833,-0.1584353 -0.2816627,0 -0.3784842,0.1584353 Q 7.13228,2.8578383 7.13228,3.1835108 v 1.5623479 q 0,0.3300735 0.096822,0.4929097 0.096821,0.1628363 0.3784842,0.1628363 z"
     style="text-align:center;text-anchor:middle;stroke-width:0.825186"
     id="path947" /><path
     d="M 9.0687095,2.1888893 H 9.4075849 L 10.41981,4.5566165 V 2.1888893 h 0.413692 v 3.5647938 h -0.31687 L 9.4912036,3.3199412 V 5.7536831 H 9.0687095 Z"
     style="text-align:center;text-anchor:middle;stroke-width:0.825186"
     id="path949" /><path
     d="m 12.233014,5.7932919 q -0.4489,0 -0.686553,-0.2772617 -0.233252,-0.2772618 -0.259658,-0.7613696 l 0.440098,-0.1188264 q 0.02201,0.3432764 0.132029,0.5545235 0.114426,0.211247 0.374084,0.211247 0.193643,0 0.290464,-0.1056235 0.101223,-0.1100245 0.101223,-0.3124696 0,-0.220049 -0.09242,-0.3652813 Q 12.43986,4.4729979 12.237415,4.2969587 L 11.638881,3.7688411 q -0.18044,-0.1584353 -0.264058,-0.3388754 -0.07922,-0.1848412 -0.07922,-0.4489 0,-0.3916872 0.22445,-0.6073352 0.22445,-0.2156481 0.611736,-0.2156481 0.422494,0 0.638142,0.22445 0.215648,0.22445 0.259658,0.6953549 L 12.607097,3.1923127 Q 12.585092,2.8798432 12.48387,2.7126059 12.387048,2.5409677 12.131791,2.5409677 q -0.189242,0 -0.290464,0.1012225 -0.101223,0.096822 -0.101223,0.2904647 0,0.1584353 0.05281,0.2684598 0.05281,0.1056235 0.18044,0.215648 l 0.602934,0.5281176 q 0.233252,0.2068461 0.369683,0.4489 0.140831,0.2420539 0.140831,0.5501225 0,0.3916872 -0.237653,0.6205382 -0.237653,0.2288509 -0.616137,0.2288509 z"
     style="text-align:center;text-anchor:middle;stroke-width:0.825186"
     id="path951" /><path
     d="M 13.865775,2.5585716 H 13.262841 V 2.1888893 h 1.685575 v 0.3696823 h -0.58533 v 3.1951115 h -0.497311 z"
     style="text-align:center;text-anchor:middle;stroke-width:0.825186"
     id="path953" /><path
     d="m 16.123462,2.1888893 h 0.466504 l 0.563326,2.6273851 0.536919,-2.6273851 h 0.453301 L 17.355737,5.7536831 H 16.92004 Z"
     style="text-align:center;text-anchor:middle;stroke-width:0.825186"
     id="path955" /><path
     d="m 19.397782,5.7932919 q -0.523716,0 -0.752567,-0.2948656 -0.22445,-0.2992667 -0.22445,-0.8625921 V 3.2847333 q 0,-0.5545235 0.228851,-0.8405872 0.228851,-0.2860637 0.748166,-0.2860637 0.519316,0 0.743766,0.2904647 0.228851,0.2860637 0.228851,0.8361862 v 1.3555019 q 0,0.5545234 -0.228851,0.8537901 -0.228851,0.2992666 -0.743766,0.2992666 z m 0,-0.3916872 q 0.277262,0 0.374083,-0.1628363 0.09682,-0.1628362 0.09682,-0.4929097 V 3.1835108 q 0,-0.3256725 -0.09682,-0.4797068 -0.09682,-0.1584353 -0.374083,-0.1584353 -0.281663,0 -0.378484,0.1584353 -0.09682,0.1540343 -0.09682,0.4797068 v 1.5623479 q 0,0.3300735 0.09682,0.4929097 0.09682,0.1628363 0.378484,0.1628363 z"
     style="text-align:center;text-anchor:middle;stroke-width:0.825186"
     id="path957" /><path
     d="m 20.858905,2.1888893 h 0.497311 v 3.2083144 h 0.911003 v 0.3564794 h -1.408314 z"
     style="text-align:center;text-anchor:middle;stroke-width:0.825186"
     id="path959" /><path
     d="M 22.900952,2.5585716 H 22.298018 V 2.1888893 h 1.685575 v 0.3696823 h -0.58533 v 3.1951115 h -0.497311 z"
     style="text-align:center;text-anchor:middle;stroke-width:0.825186"
     id="path961" /><path
     d="M 5.171641,7.6901143 H 5.6513479 L 6.4127174,11.254908 H 5.9418125 l -0.1628362,-0.8978 H 5.0528146 l -0.1716382,0.8978 H 4.4146725 Z M 5.7129616,10.000629 5.4136949,8.3942711 5.1188293,10.000629 Z"
     style="text-align:center;text-anchor:middle;stroke-width:0.825186"
     id="path963" /><path
     d="M 7.5833722,7.6901143 H 7.9926633 L 7.0288487,11.254908 H 6.6239586 Z"
     style="text-align:center;text-anchor:middle;stroke-width:0.825186"
     id="path965" /><path
     d="m 8.3975512,7.6901143 h 0.8185823 q 0.4841078,0 0.7173597,0.220049 0.2332518,0.215648 0.2332518,0.6733499 0,0.6821519 -0.5105135,0.7525676 0.3168705,0.074817 0.4621025,0.2992666 0.145233,0.220049 0.145233,0.6029346 0,0.479707 -0.228851,0.748166 -0.2244502,0.26846 -0.6865531,0.26846 H 8.3975512 Z m 0.7921764,1.4875312 q 0.3080686,0 0.4268951,-0.1320294 0.1188264,-0.1364304 0.1188264,-0.4621029 0,-0.2376529 -0.074817,-0.3476774 Q 9.5902168,8.1214103 9.4449844,8.0906035 9.2997521,8.0597966 9.0136884,8.0597966 H 8.8948619 v 1.1178489 z m 0.039609,1.7207835 q 0.220049,0 0.3388755,-0.06602 0.1232274,-0.07042 0.1716382,-0.211247 0.048411,-0.140831 0.048411,-0.382885 0,-0.3432767 -0.1408314,-0.510514 Q 9.5065982,9.5561298 9.1897276,9.5561298 H 8.8948619 v 1.3422992 z"
     style="text-align:center;text-anchor:middle;stroke-width:0.825186"
     id="path967" /><path
     d="M 12.103161,8.0597966 H 11.500227 V 7.6901143 h 1.685575 v 0.3696823 h -0.58533 v 3.1951114 h -0.497311 z"
     style="text-align:center;text-anchor:middle;stroke-width:0.825186"
     id="path969" /><path
     d="m 14.440073,11.294517 q -0.523717,0 -0.752568,-0.294866 -0.22445,-0.299266 -0.22445,-0.862592 V 8.7859583 q 0,-0.5545235 0.228851,-0.8405872 0.228851,-0.2860637 0.748167,-0.2860637 0.519316,0 0.743766,0.2904647 0.22885,0.2860637 0.22885,0.8361862 V 10.14146 q 0,0.554524 -0.22885,0.85379 -0.228851,0.299267 -0.743766,0.299267 z m 0,-0.391687 q 0.277262,0 0.374083,-0.162837 0.09682,-0.162836 0.09682,-0.492909 V 8.6847358 q 0,-0.3256726 -0.09682,-0.4797069 -0.09682,-0.1584352 -0.374083,-0.1584352 -0.281663,0 -0.378484,0.1584352 -0.09682,0.1540343 -0.09682,0.4797069 v 1.5623482 q 0,0.330073 0.09682,0.492909 0.09682,0.162837 0.378484,0.162837 z"
     style="text-align:center;text-anchor:middle;stroke-width:0.825186"
     id="path971" /><path
     d="m 16.750586,11.298918 q -0.484108,0 -0.699756,-0.303668 -0.215648,-0.308068 -0.215648,-0.911003 V 8.8915818 q 0,-0.4136921 0.08362,-0.6777509 0.08802,-0.2684598 0.294865,-0.4092911 0.211247,-0.1452324 0.576529,-0.1452324 0.492909,0 0.708557,0.2508559 0.220049,0.2508558 0.220049,0.7877754 V 8.8299681 H 17.252297 V 8.7199436 q 0,-0.2552568 -0.03081,-0.3916872 -0.03081,-0.1408314 -0.13203,-0.2112471 -0.09682,-0.070416 -0.290464,-0.070416 -0.206847,0 -0.308069,0.096821 -0.101223,0.092421 -0.132029,0.2508559 -0.02641,0.1584353 -0.02641,0.4224941 v 1.3202937 q 0,0.409291 0.09682,0.589731 0.101223,0.17604 0.382885,0.17604 0.277262,0 0.378485,-0.193643 0.105623,-0.193644 0.105623,-0.620539 V 9.8421935 H 16.843006 V 9.4901151 h 0.902201 v 1.7647929 h -0.312469 l -0.04841,-0.409291 q -0.167237,0.453301 -0.633741,0.453301 z"
     style="text-align:center;text-anchor:middle;stroke-width:0.825186"
     id="path973" /><path
     d="m 19.105109,11.298918 q -0.484107,0 -0.699755,-0.303668 -0.215648,-0.308068 -0.215648,-0.911003 V 8.8915818 q 0,-0.4136921 0.08362,-0.6777509 0.08802,-0.2684598 0.294866,-0.4092911 0.211247,-0.1452324 0.576528,-0.1452324 0.49291,0 0.708558,0.2508559 0.220049,0.2508558 0.220049,0.7877754 V 8.8299681 H 19.606821 V 8.7199436 q 0,-0.2552568 -0.03081,-0.3916872 -0.03081,-0.1408314 -0.132029,-0.2112471 -0.09682,-0.070416 -0.290465,-0.070416 -0.206846,0 -0.308068,0.096821 -0.101223,0.092421 -0.13203,0.2508559 -0.02641,0.1584353 -0.02641,0.4224941 v 1.3202937 q 0,0.409291 0.09682,0.589731 0.101222,0.17604 0.382885,0.17604 0.277262,0 0.378484,-0.193643 0.105624,-0.193644 0.105624,-0.620539 V 9.8421935 H 19.19753 V 9.4901151 h 0.902201 v 1.7647929 h -0.31247 l -0.04841,-0.409291 q -0.167238,0.453301 -0.633742,0.453301 z"
     style="text-align:center;text-anchor:middle;stroke-width:0.825186"
     id="path975" /><path
     d="m 20.610244,7.6901143 h 0.497311 v 3.2083147 h 0.911003 v 0.356479 h -1.408314 z"
     style="text-align:center;text-anchor:middle;stroke-width:0.825186"
     id="path977" /><path
     d="m 22.357431,7.6901143 h 1.381907 v 0.3696823 h -0.884597 v 1.1794626 h 0.71736 v 0.3520784 h -0.71736 v 1.3070914 h 0.893399 v 0.356479 h -1.390709 z"
     style="text-align:center;text-anchor:middle;stroke-width:0.825186"
     id="path979" /></g></svg>
