<?xml version="1.0" encoding="UTF-8" standalone="no"?>
<svg
   xmlns:dc="http://purl.org/dc/elements/1.1/"
   xmlns:cc="http://creativecommons.org/ns#"
   xmlns:rdf="http://www.w3.org/1999/02/22-rdf-syntax-ns#"
   xmlns:svg="http://www.w3.org/2000/svg"
   xmlns="http://www.w3.org/2000/svg"
   xmlns:xlink="http://www.w3.org/1999/xlink"
   xmlns:sodipodi="http://sodipodi.sourceforge.net/DTD/sodipodi-0.dtd"
   xmlns:inkscape="http://www.inkscape.org/namespaces/inkscape"
   version="1.0"
   id="svg111794"
   x="0px"
   y="0px"
   width="13.85552"
   height="13.85938"
   viewBox="0 0 13.85552 13.85938"
   enable-background="new 0 0 17.85552 17.85938"
   xml:space="preserve"
   sodipodi:docname="ModeNum4.svg"
   inkscape:version="1.0.2 (e86c870879, 2021-01-15)"><metadata
   id="metadata27"><rdf:RDF><cc:Work
       rdf:about=""><dc:format>image/svg+xml</dc:format><dc:type
         rdf:resource="http://purl.org/dc/dcmitype/StillImage" /><dc:title></dc:title></cc:Work></rdf:RDF></metadata><defs
   id="defs25"><linearGradient
     inkscape:collect="always"
     xlink:href="#SVGID_2_"
     id="linearGradient899"
     x1="2.6243801"
     y1="-4.0820599"
     x2="15.191484"
     y2="-4.0820599"
     gradientUnits="userSpaceOnUse"
     gradientTransform="translate(-1.0786115e-6)" /></defs><sodipodi:namedview
   pagecolor="#ffffff"
   bordercolor="#666666"
   borderopacity="1"
   objecttolerance="10"
   gridtolerance="10"
   guidetolerance="10"
   inkscape:pageopacity="0"
   inkscape:pageshadow="2"
   inkscape:window-width="1920"
   inkscape:window-height="1017"
   id="namedview23"
   showgrid="false"
   inkscape:zoom="23.797018"
   inkscape:cx="11.355861"
   inkscape:cy="10.113214"
   inkscape:window-x="-8"
   inkscape:window-y="-8"
   inkscape:window-maximized="1"
   inkscape:current-layer="svg111794"
   inkscape:document-rotation="0" />

<linearGradient
   id="SVGID_1_"
   gradientUnits="userSpaceOnUse"
   x1="-2317.6343"
   y1="-3827.8528"
   x2="-2301.4397"
   y2="-3827.8528"
   gradientTransform="matrix(0,0.77600395,-0.77600395,0,-2963.5011,1799.1395)">
	<stop
   offset="0"
   style="stop-color:#FFFBFD"
   id="stop4" />
	<stop
   offset="1"
   style="stop-color:#000000"
   id="stop6" />
</linearGradient>

<linearGradient
   id="SVGID_2_"
   gradientUnits="userSpaceOnUse"
   x1="183.81821"
   y1="5065.8359"
   x2="200.01283"
   y2="5065.8359"
   gradientTransform="matrix(2.8619321e-8,0.77600395,0.77600395,-2.8619321e-8,-3924.181,-141.99737)">
	<stop
   offset="0"
   style="stop-color:#FFFBFD"
   id="stop11" />
	<stop
   offset="1"
   style="stop-color:#2E2E2E"
   id="stop13" />
</linearGradient>



<circle
   fill="url(#SVGID_1_)"
   cx="6.9277601"
   cy="6.9296899"
   r="6.2835522"
   id="circle9"
   style="fill:url(#SVGID_1_);stroke-width:0.776004" /><circle
   fill="url(#SVGID_2_)"
   cx="8.9079323"
   cy="-4.0820599"
   id="circle16"
   style="opacity:1;fill:#9b9b9b;fill-opacity:1;stroke-width:0.776004"
   transform="rotate(69.627598)"
   r="6.2835522" /><circle
   opacity="0.4"
   enable-background="new    "
   cx="6.9277601"
   cy="6.9296899"
   r="5.3586097"
   id="circle18"
   style="stroke-width:0.776004" /><circle
   fill="url(#SVGID_2_)"
   cx="8.9079323"
   cy="-4.0820599"
   id="circle891"
   style="opacity:0.545171;fill:url(#linearGradient899);fill-opacity:1;stroke-width:0.776004"
   transform="rotate(69.627598)"
   r="6.2835522" /><circle
   opacity="0.43"
   enable-background="new    "
   cx="6.9277601"
   cy="6.9296899"
   r="5.3586097"
   id="circle20"
   style="opacity:0.5;stroke-width:0.776004" /><g
   aria-label="B"
   id="text903"
   style="font-style:normal;font-variant:normal;font-weight:normal;font-stretch:normal;font-size:10.6667px;line-height:1.25;font-family:'DIN 1451 Std';-inkscape-font-specification:'DIN 1451 Std';letter-spacing:0px;fill:#ffffff"
   transform="translate(19.013811,1.9098355)" /><g
   aria-label="F"
   id="text914"
   style="font-size:10.6667px;line-height:1.25;font-family:'Akzidenz-Grotesk BQ Super';-inkscape-font-specification:'Akzidenz-Grotesk BQ Super';letter-spacing:0px;fill:#ffffff"
   inkscape:transform-center-x="-0.25213244"
   inkscape:transform-center-y="-0.21011036"
   transform="translate(-12)"><path
     d="M 4.5010857,10.727036 H 5.6530893 V 7.4843586 H 8.8104327 V 6.4603554 H 5.6530893 V 4.2203483 H 9.3544344 V 3.1323449 H 4.5010857 Z"
     style="font-style:normal;font-variant:normal;font-weight:normal;font-stretch:normal;font-family:'DIN 1451 Std';-inkscape-font-specification:'DIN 1451 Std';fill:#ffffff"
     id="path919" /></g><text
   xml:space="preserve"
   style="font-style:normal;font-variant:normal;font-weight:normal;font-stretch:normal;font-size:8px;line-height:1.25;font-family:'DIN 1451 Std';-inkscape-font-specification:'DIN 1451 Std';letter-spacing:0px;fill:#000000;"
   x="14.59376"
   y="11.20169"
   id="text853"><tspan
     sodipodi:role="line"
     id="tspan851"
     x="14.59376"
     y="11.20169">all</tspan></text><g
   aria-label="all"
   id="text857"
   style="font-style:normal;font-variant:normal;font-weight:normal;font-stretch:normal;font-size:8px;line-height:1.25;font-family:'DIN 1451 Std';-inkscape-font-specification:'DIN 1451 Std';letter-spacing:0px;fill:#ffffff"><path
     d="m 5.48377,9.7536898 h 0.816 v -2.768 c 0,-1 -0.688,-1.336 -1.688,-1.336 -0.608,0 -1.056,0.16 -1.368,0.592 l 0.64,0.488 c 0.144,-0.232 0.344,-0.312 0.768,-0.312 0.584,0 0.832,0.136 0.832,0.52 v 0.424 h -1.128 c -0.872,0 -1.32,0.552 -1.32,1.2 0,0.704 0.528,1.24 1.432,1.24 0.552,0 0.832,-0.128 1,-0.408 h 0.016 z m 0,-1.424 c 0,0.632 -0.232,0.704 -0.912,0.704 -0.552,0 -0.768,-0.24 -0.768,-0.512 0,-0.296 0.224,-0.488 0.704,-0.488 h 0.976 z"
     id="path859" /><path
     d="m 7.3557547,8.7696898 c 0,0.728 0.448,0.984 1.04,0.984 h 0.36 v -0.768 h -0.28 c -0.2,0 -0.304,-0.096 -0.304,-0.28 v -4.648 h -0.816 z"
     id="path861" /><path
     d="m 9.4197501,8.7696898 c 0,0.728 0.448,0.984 1.0399999,0.984 h 0.36 v -0.768 h -0.28 c -0.2,0 -0.304,-0.096 -0.304,-0.28 v -4.648 H 9.4197501 Z"
     id="path863" /></g></svg>
