<?xml version="1.0" encoding="UTF-8" standalone="no"?>
<svg
   xmlns:dc="http://purl.org/dc/elements/1.1/"
   xmlns:cc="http://creativecommons.org/ns#"
   xmlns:rdf="http://www.w3.org/1999/02/22-rdf-syntax-ns#"
   xmlns:svg="http://www.w3.org/2000/svg"
   xmlns="http://www.w3.org/2000/svg"
   xmlns:xlink="http://www.w3.org/1999/xlink"
   xmlns:sodipodi="http://sodipodi.sourceforge.net/DTD/sodipodi-0.dtd"
   xmlns:inkscape="http://www.inkscape.org/namespaces/inkscape"
   version="1.0"
   id="svg11543"
   x="0px"
   y="0px"
   width="8"
   height="8"
   viewBox="0 0 2.1166667 2.1166667"
   enable-background="new 0 0 28 28"
   xml:space="preserve"
   sodipodi:docname="SGB1.svg"
   inkscape:version="1.0.2 (e86c870879, 2021-01-15)"><metadata
   id="metadata56"><rdf:RDF><cc:Work
       rdf:about=""><dc:format>image/svg+xml</dc:format><dc:type
         rdf:resource="http://purl.org/dc/dcmitype/StillImage" /><dc:title></dc:title></cc:Work></rdf:RDF></metadata><defs
   id="defs54"><linearGradient
   id="linearGradient913"
   gradientUnits="userSpaceOnUse"
   x1="61.012321"
   y1="647.34302"
   x2="61.012321"
   y2="644.3183"
   gradientTransform="translate(-47.00625,-631.83069)">
	<stop
   offset="0"
   style="stop-color:#dedede;stop-opacity:1"
   id="stop909" />
	<stop
   offset="1"
   style="stop-color:#808080"
   id="stop911" />
</linearGradient>
	
		<linearGradient
   id="path5961-3_00000037690977164241640150000010190239438185047199_"
   gradientUnits="userSpaceOnUse"
   x1="425.26129"
   y1="4588.582"
   x2="438.45428"
   y2="4588.582"
   gradientTransform="matrix(0,1,1,0,-4574.582,-417.7335)"
   xlink:href="#SVGID_00000062902810955147947180000017029953182049938343_">
		<stop
   offset="0"
   style="stop-color:#ED0F0F"
   id="stop46" />
		<stop
   offset="1"
   style="stop-color:#BF0000"
   id="stop48" />
	</linearGradient>
	
		
<linearGradient
   inkscape:collect="always"
   xlink:href="#linearGradient913"
   id="linearGradient891"
   x1="7.4036698"
   y1="14.1243"
   x2="11.189644"
   y2="18.480583"
   gradientUnits="userSpaceOnUse" /><linearGradient
   inkscape:collect="always"
   xlink:href="#SVGID_00000060724526275470693390000008245162449035415988_"
   id="linearGradient899"
   x1="-295.48431"
   y1="-1175.8267"
   x2="-290.86594"
   y2="-1170.6497"
   gradientUnits="userSpaceOnUse" /><linearGradient
   inkscape:collect="always"
   xlink:href="#linearGradient913"
   id="linearGradient921"
   x1="21.610846"
   y1="4.3531866"
   x2="3.926909"
   y2="21.020702"
   gradientUnits="userSpaceOnUse" /><linearGradient
   inkscape:collect="always"
   xlink:href="#SVGID_00000060724526275470693390000008245162449035415988_"
   id="linearGradient869"
   gradientUnits="userSpaceOnUse"
   x1="-295.48431"
   y1="-1175.8267"
   x2="-290.86594"
   y2="-1170.6497" /></defs>
<sodipodi:namedview
   bordercolor="#666666"
   borderopacity="1.0"
   fit-margin-bottom="0"
   fit-margin-left="0"
   fit-margin-right="0"
   fit-margin-top="0"
   id="base"
   inkscape:current-layer="svg11543"
   inkscape:cx="0.44504855"
   inkscape:cy="7.0288665"
   inkscape:document-units="mm"
   inkscape:pageopacity="0.0"
   inkscape:pageshadow="2"
   inkscape:window-height="1041"
   inkscape:window-maximized="0"
   inkscape:window-width="1904"
   inkscape:window-x="-17"
   inkscape:window-y="5"
   inkscape:zoom="15.839192"
   pagecolor="#ffffff"
   showgrid="false"
   units="px"
   inkscape:document-rotation="0">
	</sodipodi:namedview>

<linearGradient
   id="SVGID_00000060724526275470693390000008245162449035415988_"
   gradientUnits="userSpaceOnUse"
   x1="939.74719"
   y1="4807.7295"
   x2="963.97021"
   y2="4807.7295"
   gradientTransform="matrix(0,1,1,0,-4793.7295,-937.84595)">
	<stop
   offset="0.00559"
   style="stop-color:#FFFFFF"
   id="stop12" />
	<stop
   offset="1"
   style="stop-color:#7A7A7A"
   id="stop14" />
</linearGradient>


<linearGradient
   id="SVGID_00000062902810955147947180000017029953182049938343_"
   gradientUnits="userSpaceOnUse"
   x1="61.012321"
   y1="647.34302"
   x2="61.012321"
   y2="644.3183"
   gradientTransform="translate(-47.00625,-631.83069)">
	<stop
   offset="0"
   style="stop-color:#FFFBFD"
   id="stop21" />
	<stop
   offset="1"
   style="stop-color:#808080"
   id="stop23" />
</linearGradient>

<linearGradient
   id="SVGID_00000058574683125002154270000012606513362735587759_"
   gradientUnits="userSpaceOnUse"
   x1="-1928.2729"
   y1="1097.9371"
   x2="-1909.2076"
   y2="1097.9371"
   gradientTransform="rotate(-90,-1494.3387,-410.40167)">
	<stop
   offset="0"
   style="stop-color:#B0AEAE"
   id="stop28" />
	<stop
   offset="1"
   style="stop-color:#616161"
   id="stop30" />
</linearGradient>




<g
   id="g867"
   transform="matrix(0.09289615,0,0,0.09289615,-0.24221278,-0.243399)"><g
     id="g935"><path
       id="circle19"
       style="fill:url(#linearGradient921);fill-opacity:1"
       d="M 25.39265,14.01277 A 11.39265,11.39265 0 0 1 14,25.405419 11.39265,11.39265 0 0 1 2.6073503,14.01277 11.39265,11.39265 0 0 1 14,2.62012 11.39265,11.39265 0 0 1 25.39265,14.01277 Z" /><path
       id="circle33"
       style="fill:url(#SVGID_00000058574683125002154270000012606513362735587759_)"
       d="M 23.53281,13.99996 A 9.53265,9.53265 0 0 1 14.00016,23.53261 9.53265,9.53265 0 0 1 4.4675102,13.99996 9.53265,9.53265 0 0 1 14.00016,4.46731 9.53265,9.53265 0 0 1 23.53281,13.99996 Z" /><path
       id="circle35"
       style="fill:#000000;fill-opacity:0.507692"
       d="M 22.90897,13.99996 A 8.9088097,8.9088097 0 0 1 14.00016,22.90877 8.9088097,8.9088097 0 0 1 5.0913506,13.99996 8.9088097,8.9088097 0 0 1 14.00016,5.0911503 8.9088097,8.9088097 0 0 1 22.90897,13.99996 Z" /><g
       id="g5959-5_00000131326188693635625900000004001466656428662701_"
       transform="translate(301.93513,1189.951)"
       style="fill:url(#linearGradient899);fill-opacity:1">
	
		<linearGradient
   id="path5961-3_00000064345341073832872280000009516200862616110519_"
   gradientUnits="userSpaceOnUse"
   x1="-1010.0013"
   y1="1724.4344"
   x2="-994.90259"
   y2="1724.4344"
   gradientTransform="matrix(-3.267949e-7,1,1,3.267949e-7,-2012.3696,-173.37532)">
		<stop
   offset="0"
   style="stop-color:#FF6666;fill-opacity:1.0;fill:url(#linearGradient899)"
   id="stop39" />
		<stop
   offset="1"
   style="stop-color:#800B0B;fill-opacity:1.0;fill:url(#linearGradient899)"
   id="stop41" />
	</linearGradient>
	
		<path
   id="path5961-3_00000119825455375359423010000002599034882912654976_"
   inkscape:connector-curvature="0"
   fill="url(#path5961-3_00000064345341073832872280000009516200862616110519_)"
   d="m -295.48431,-1175.8273 c 0,-4.169 3.38092,-7.5488 7.54993,-7.5488 4.16846,0 7.5488,3.3798 7.5488,7.5488 0,4.1708 -3.38034,7.55 -7.5488,7.55 -4.16904,0 -7.54993,-3.3792 -7.54993,-7.55"
   style="fill:url(#linearGradient869);fill-opacity:1" />
</g><path
       id="path5961-3_00000012461119498048617630000008979488342204509061_"
       inkscape:connector-curvature="0"
       fill="url(#path5961-3_00000037690977164241640150000010190239438185047199_)"
       d="m 14.00065,7.5278 c 3.64288,0 6.59604,2.9542 6.59604,6.597 0,3.6424 -2.95316,6.596 -6.59604,6.596 -3.64432,0 -6.59698,-2.9538 -6.59698,-6.596 0,-3.6428 2.95266,-6.597 6.59698,-6.597"
       style="fill:url(#linearGradient891);fill-opacity:1" /></g></g>
</svg>
